<svg width="36" height="25" viewBox="0 0 36 25" fill="none" xmlns="http://www.w3.org/2000/svg">
<g clip-path="url(#clip0_10177_237)">
<path d="M7.63489 0.246922C11.0635 0.0339462 14.4992 -0.0221 17.9341 -0.0410156C21.1595 -0.0228006 24.3871 0.0297427 27.6084 0.216797C29.0151 0.315578 30.4324 0.392642 31.8153 0.688986C33.4168 1.04488 34.7528 2.35496 35.1438 3.94807C35.5767 5.69041 35.6832 7.49159 35.7876 9.27736C35.8191 9.75236 35.7981 10.2309 35.8696 10.7023V12.8916C35.8072 15.4509 35.7407 18.0276 35.2706 20.5511C35.1157 21.487 34.7227 22.395 34.0586 23.0822C33.4722 23.7044 32.7051 24.1548 31.8742 24.3566C31.4181 24.4666 30.9522 24.5275 30.4877 24.585C28.4603 24.8169 26.4188 24.8911 24.3808 24.9633C20.7847 25.0768 17.1866 25.1076 13.5898 25.0165C11.1357 24.9598 8.67875 24.8827 6.23304 24.6585C5.4624 24.5752 4.68686 24.4974 3.93234 24.3125C2.74276 24.0049 1.6989 23.1824 1.12022 22.0979C0.696374 21.3252 0.574474 20.4383 0.434358 19.5815C0.124002 17.3669 0.0455375 15.1286 0 12.8951V12.1722C0.0441364 9.9303 0.123302 7.68215 0.434358 5.45922C0.588485 4.47491 0.741911 3.44576 1.31709 2.60507C1.98193 1.58362 3.06433 0.831203 4.26932 0.614024C5.38113 0.413659 6.50907 0.325386 7.63489 0.246922ZM14.3604 7.1392C14.359 10.7241 14.3597 14.3082 14.3597 17.8931C17.4738 16.1031 20.5865 14.3117 23.6963 12.5147C20.5844 10.7227 17.4738 8.92848 14.3604 7.1392Z" fill="#FF0000"/>
<path d="M14.3603 7.14062C17.4736 8.9299 20.5842 10.7241 23.6961 12.5162C20.5863 14.3131 17.4736 16.1045 14.3596 17.8945C14.3596 14.3096 14.3588 10.7255 14.3603 7.14062Z" fill="white"/>
</g>
<defs>
<clipPath id="clip0_10177_237">
<rect width="35.8696" height="25" fill="white"/>
</clipPath>
</defs>
</svg>
