<svg width="90" height="73" viewBox="0 0 90 73" fill="none" xmlns="http://www.w3.org/2000/svg">
<path d="M5.65522 2.96137C7.97015 2.31886 10.791 2.48281 12.5328 4.3173C15.5239 6.78988 15.3985 11.9211 12.3269 14.2874C9.00895 17.3138 2.8388 15.5236 1.68806 11.2033C1.28955 9.20485 1.25373 6.82533 2.70447 5.21239C3.49701 4.25526 4.50895 3.46209 5.65522 2.96137Z" fill="#FECC02"/>
<path d="M39.2911 10.8043C44.7762 10.7112 50.2612 10.7201 55.7463 10.8043C59.0284 15.7184 61.7597 20.9738 64.8359 26.0164C68.6015 32.9112 72.8866 39.5269 76.5762 46.4572C75.4299 47.2814 74.2702 48.0968 73.0209 48.7614C69.0269 50.9283 65.109 53.2324 61.1866 55.5145C60.009 56.1747 58.7553 56.8571 57.3583 56.7951C49.8314 56.7641 42.3045 56.8217 34.7777 56.7641C34.715 54.4422 34.6971 52.1202 34.7911 49.8027C40.8045 49.6875 46.8179 49.7806 52.8314 49.7584C54.7299 49.6875 56.8299 50.1218 58.4687 48.9254C61.2 47.1662 64.2627 45.8989 66.7702 43.8251C66.4254 43.0807 66.0851 42.3318 65.6777 41.6184C62.1135 35.5522 58.6433 29.4372 55.0433 23.3932C53.8971 21.5144 52.9747 19.4938 51.5329 17.8099C47.4448 17.739 43.3523 17.8631 39.2642 17.7568C39.1836 15.4393 39.206 13.1218 39.2911 10.8043Z" fill="#FECC02"/>
<path d="M10.3299 18.3642C12.1433 16.995 14.1672 15.3909 16.4642 15.1206C20.0418 16.6804 23.2836 18.9447 26.7224 20.7925C28.509 21.9711 30.8642 22.6491 31.8806 24.6697C32.8747 26.5086 33.8911 28.3387 34.9299 30.1599C33.8463 31.1968 32.5344 31.9323 31.209 32.6147C29.1 30.8113 28.7463 27.5721 26.1583 26.2516C24.6045 25.3299 23.0687 24.3817 21.5195 23.46C24.5015 28.7198 27.5508 33.9485 30.6403 39.1551C30.8598 39.6204 31.2269 40.0901 31.1508 40.6351C30.6672 44.1756 28.9702 47.4723 28.7508 51.0571C30.7568 52.484 32.906 54.026 33.7836 56.4188C35.109 60.0523 34.2493 64.5499 31.1642 67.0757C28.903 69.4818 25.2941 69.6014 22.2314 69.083C19.0344 68.1259 16.3209 65.4849 15.5195 62.2458C14.9598 59.2946 15.4344 55.9137 17.6553 53.7114C18.8642 52.2713 21.1075 51.6022 21.4926 49.586C22.0836 47.1755 22.8806 44.8137 23.418 42.3898C23.7448 41.0073 22.7687 39.8375 22.1553 38.6987C20.7224 36.523 19.7821 34.0371 17.9956 32.1007C15.5239 34.1435 13.6792 36.8066 11.1269 38.7652C9.97617 37.8701 8.96423 36.8155 8.0105 35.7165C9.01348 33.0844 11.8165 31.7773 13.2717 29.4642C13.8806 27.869 14.7135 25.9636 13.7777 24.3329C12.712 22.2946 11.3956 20.3981 10.3299 18.3642ZM23.5657 57.7747C22.0523 58.6034 22.0344 61.2576 23.5657 62.0729C24.7478 62.3521 26.3777 62.3964 27.0314 61.1601C27.4209 59.9681 27.1881 58.5192 26.109 57.7481C25.2896 57.4956 24.3806 57.4867 23.5657 57.7747Z" fill="#FECC02"/>
<path d="M71.3284 50.4676C74.1582 49.8251 77.409 49.8251 79.8672 51.5576C81.8821 52.9845 83.6239 55.0848 83.9642 57.584C84.2553 59.7286 84.0985 62.024 83.0418 63.9559C81.3806 66.8716 78.1791 68.9809 74.7359 68.9277C69.5239 69.2645 64.5941 64.4567 65.0687 59.2589C64.7687 55.3285 67.8045 51.8501 71.3284 50.4676ZM73.6388 57.2428C72.112 57.6061 72.0493 59.5248 72.3806 60.7567C73.0165 62.0284 74.6553 61.9841 75.8463 61.6429C77.0463 60.9561 77.1179 59.3919 76.7597 58.2088C76.0523 57.2383 74.7627 56.9991 73.6388 57.2428Z" fill="#FECC02"/>
</svg>
