<svg width="25" height="25" viewBox="0 0 25 25" fill="none" xmlns="http://www.w3.org/2000/svg">
<g clip-path="url(#clip0_10177_225)">
<path d="M11.0139 0.0872272C13.0932 -0.159113 15.2361 0.117216 17.1776 0.904789C19.2191 1.72449 21.0336 3.09971 22.3803 4.8398C24.049 6.97689 24.993 9.67377 24.9987 12.3878C25.0294 14.4828 24.5096 16.582 23.5135 18.4249C22.4731 20.3599 20.9107 22.0115 19.037 23.1596C17.2133 24.2821 15.0947 24.9268 12.9525 24.9904C10.8332 25.0746 8.69391 24.6034 6.80879 23.6323C4.58379 22.4999 2.71795 20.6791 1.52476 18.487C0.389406 16.4185 -0.134713 14.0201 0.0295205 11.6666C0.175188 9.34675 0.994213 7.07614 2.35807 5.19467C4.36528 2.38497 7.58069 0.478515 11.0139 0.0872272ZM17.4333 7.35746C15.9009 7.9394 14.3992 8.60416 12.8833 9.22965C10.3077 10.2985 7.72564 11.3517 5.14718 12.4149C4.87012 12.5413 4.55736 12.6663 4.38956 12.9355C4.24532 13.1718 4.42741 13.4738 4.67304 13.5445C5.38996 13.783 6.10759 14.0208 6.83093 14.2414C7.4136 14.4178 8.09981 14.527 8.64963 14.2007C10.2406 13.1525 11.8208 12.0893 13.3924 11.0119C13.7873 10.7412 14.1807 10.4549 14.627 10.2714C14.7448 10.2407 14.9576 10.1479 15.0155 10.3128C15.0033 10.597 14.8048 10.8305 14.6213 11.0311C13.4317 12.2214 12.2042 13.3724 10.9689 14.5142C10.7532 14.7062 10.4962 14.9262 10.5048 15.2432C10.4998 15.5574 10.7661 15.7651 10.9896 15.9415C12.0486 16.7562 13.176 17.4767 14.29 18.2135C14.7256 18.5199 15.1897 18.804 15.7095 18.9419C15.9602 19.0033 16.2486 19.0268 16.4757 18.879C16.7435 18.7098 16.8763 18.3928 16.9277 18.0907C17.384 15.2196 17.8517 12.3499 18.283 9.47527C18.3501 9.01758 18.4251 8.56131 18.4672 8.10077C18.4872 7.85514 18.4451 7.56168 18.2273 7.41102C17.9917 7.2575 17.6918 7.28892 17.4333 7.35746Z" fill="#34AADF"/>
<path d="M17.8979 7.05822C18.1723 6.98784 18.4906 6.95559 18.7407 7.11319C18.9718 7.26786 19.0165 7.56914 18.9953 7.82131C18.9506 8.29411 18.871 8.76252 18.7998 9.2324C18.342 12.1836 17.8456 15.1297 17.3614 18.0772C17.3068 18.3873 17.1658 18.7127 16.8816 18.8865C16.6406 19.0382 16.3345 19.014 16.0685 18.951C15.5168 18.8095 15.0242 18.5178 14.5619 18.2033C13.3796 17.4468 12.183 16.7072 11.0591 15.8708C10.8219 15.6897 10.5392 15.4764 10.5445 15.1539C10.5354 14.8284 10.8082 14.6026 11.0371 14.4054C12.3482 13.2333 13.6509 12.0517 14.9135 10.8297C15.1083 10.6237 15.319 10.384 15.3318 10.0923C15.2705 9.92292 15.0446 10.0182 14.9196 10.0497C14.4459 10.2381 14.0283 10.5321 13.6092 10.8099C11.9412 11.916 10.2641 13.0075 8.57559 14.0836C7.99205 14.4186 7.26375 14.3065 6.64535 14.1254C5.87764 13.8989 5.116 13.6548 4.35512 13.41C4.09442 13.3374 3.90117 13.0273 4.05425 12.7847C4.23235 12.5083 4.56429 12.3801 4.85833 12.2503C7.59493 11.1588 10.3353 10.0776 13.0689 8.98024C14.6778 8.3381 16.2716 7.65564 17.8979 7.05822Z" fill="white"/>
</g>
<defs>
<clipPath id="clip0_10177_225">
<rect width="25" height="25" fill="white"/>
</clipPath>
</defs>
</svg>
