<svg width="25" height="25" viewBox="0 0 25 25" fill="none" xmlns="http://www.w3.org/2000/svg">
<g clip-path="url(#clip0_10177_226)">
<path d="M4.58642 7.84894C5.16373 7.8259 5.74243 7.84754 6.32043 7.83846C6.54032 7.84475 6.78186 7.81403 6.97732 7.93899C7.19581 8.08558 7.28517 8.34666 7.37103 8.58331C7.70331 9.53478 8.11168 10.4611 8.60662 11.34C8.96263 11.9606 9.34378 12.5805 9.85966 13.0831C10.0216 13.2339 10.2464 13.4112 10.4809 13.3162C10.661 13.2066 10.6436 12.9602 10.6589 12.7773C10.6631 11.8957 10.6589 11.014 10.661 10.133C10.6617 9.69254 10.5682 9.23461 10.305 8.87301C10.1954 8.70826 10.0412 8.57004 9.96786 8.38366C9.87292 8.12747 10.0984 7.84126 10.3623 7.84405C11.2712 7.83218 12.18 7.84475 13.0889 7.83846C13.2586 7.84405 13.4568 7.82101 13.5908 7.95016C13.7409 8.09815 13.7395 8.32851 13.7458 8.52537C13.7451 9.69045 13.7458 10.8562 13.7444 12.022C13.7458 12.2147 13.7654 12.4485 13.9455 12.5623C14.0914 12.6161 14.2484 12.5379 14.3713 12.4604C14.7538 12.1958 15.0421 11.8238 15.3221 11.4587C16.0481 10.4835 16.6142 9.40005 17.1056 8.29081C17.2222 8.00251 17.5259 7.82939 17.8316 7.84056C18.4627 7.83916 19.0937 7.83707 19.7248 7.84195C19.9363 7.83777 20.2107 7.92991 20.2323 8.17563C20.2532 8.5484 20.0697 8.89185 19.9189 9.22134C19.299 10.422 18.5339 11.5403 17.7688 12.6524C17.6404 12.836 17.5322 13.0859 17.6822 13.2911C17.965 13.7204 18.3838 14.0345 18.7273 14.4115C19.2606 14.9972 19.7932 15.5885 20.233 16.2481C20.4124 16.5469 20.6365 16.8806 20.5639 17.2464C20.499 17.4907 20.233 17.5982 20.0012 17.6017C19.4665 17.6191 18.9311 17.601 18.3957 17.6094C18.1507 17.6073 17.8875 17.6212 17.6655 17.4991C17.4023 17.3539 17.2083 17.1172 17.003 16.9036C16.3755 16.2049 15.7416 15.4949 14.9612 14.963C14.6701 14.764 14.3092 14.6007 13.9524 14.7103C13.7786 14.7801 13.7563 14.9965 13.7465 15.1598C13.7388 15.7623 13.7521 16.3654 13.743 16.9678C13.7451 17.1375 13.6865 17.3232 13.5371 17.4174C13.2579 17.5933 12.9137 17.5835 12.5968 17.6059C11.0275 17.638 9.52528 16.9197 8.37137 15.8907C7.54066 15.1724 6.911 14.2607 6.31345 13.3476C5.50997 12.0779 4.79445 10.7383 4.3393 9.30092C4.24157 8.95957 4.12569 8.61053 4.13756 8.25102C4.14454 8.01717 4.36653 7.85731 4.58642 7.84894Z" fill="white"/>
<path d="M6.62202 0.052398C7.1721 0.0119098 7.72428 0.00841946 8.27575 0.000740676C10.5536 4.26041e-05 12.8314 0.00074066 15.1092 4.25881e-05C16.0662 0.0021368 17.024 -0.0118246 17.9797 0.0482095C19.195 0.127092 20.4306 0.270894 21.5629 0.746281C22.3231 1.0646 23.0058 1.58397 23.4686 2.27087C24.0019 3.05341 24.2651 3.98184 24.4263 4.90539C24.6218 6.07885 24.6672 7.27046 24.6679 8.45788C24.6686 10.4809 24.6679 12.5032 24.6679 14.5262C24.6623 16.1674 24.7133 17.8169 24.4766 19.4455C24.2993 20.6511 23.9628 21.8999 23.1314 22.8284C22.3754 23.6828 21.2697 24.1212 20.1765 24.3488C18.8327 24.6266 17.454 24.6657 16.0865 24.6685C14.1793 24.6692 12.2715 24.6685 10.3644 24.6685C9.15463 24.6643 7.94347 24.6873 6.73441 24.6266C5.52884 24.5456 4.30442 24.4123 3.17634 23.9544C2.42871 23.6521 1.74669 23.1649 1.2734 22.5066C0.763805 21.8029 0.478294 20.9638 0.307266 20.1185C0.0468852 18.8312 0.00290667 17.5126 0.000114387 16.203C0.000114387 13.8763 0.000114387 11.5496 0.000114387 9.22297C-0.000583684 7.42753 -0.0103567 5.59997 0.476897 3.85689C0.773578 2.79442 1.36973 1.77524 2.31422 1.16861C3.5882 0.345588 5.14211 0.157109 6.62202 0.052398ZM4.58645 7.84776C4.36655 7.85614 4.14457 8.016 4.13759 8.24985C4.12572 8.60936 4.2416 8.9584 4.33933 9.29975C4.79447 10.7371 5.50999 12.0767 6.31348 13.3465C6.91102 14.2596 7.54069 15.1712 8.37139 15.8896C9.5253 16.9185 11.0276 17.6368 12.5968 17.6047C12.9137 17.5824 13.2579 17.5921 13.5371 17.4162C13.6865 17.322 13.7451 17.1363 13.7431 16.9667C13.7521 16.3642 13.7389 15.7611 13.7465 15.1587C13.7563 14.9953 13.7787 14.7789 13.9525 14.7091C14.3092 14.5995 14.6701 14.7629 14.9612 14.9618C15.7416 15.4937 16.3755 16.2037 17.003 16.9025C17.2083 17.1161 17.4023 17.3527 17.6655 17.4979C17.8875 17.6201 18.1507 17.6061 18.3957 17.6082C18.9311 17.5998 19.4665 17.618 20.0013 17.6005C20.233 17.597 20.499 17.4895 20.5639 17.2452C20.6365 16.8794 20.4124 16.5457 20.233 16.247C19.7932 15.5873 19.2606 14.996 18.7273 14.4103C18.3838 14.0334 17.965 13.7192 17.6823 13.2899C17.5322 13.0847 17.6404 12.8348 17.7688 12.6512C18.5339 11.5392 19.299 10.4209 19.9189 9.22017C20.0697 8.89068 20.2533 8.54723 20.2323 8.17446C20.2107 7.92874 19.9363 7.8366 19.7248 7.84078C19.0938 7.8359 18.4627 7.83799 17.8317 7.83939C17.5259 7.82822 17.2222 8.00134 17.1057 8.28964C16.6142 9.39888 16.0481 10.4823 15.3221 11.4575C15.0422 11.8226 14.7539 12.1947 14.3713 12.4592C14.2485 12.5367 14.0914 12.6149 13.9455 12.5611C13.7654 12.4474 13.7458 12.2135 13.7444 12.0208C13.7458 10.8551 13.7451 9.68928 13.7458 8.5242C13.7396 8.32734 13.741 8.09698 13.5909 7.94898C13.4568 7.81984 13.2586 7.84288 13.089 7.83729C12.1801 7.84358 11.2712 7.83101 10.3623 7.84288C10.0984 7.84009 9.87294 8.1263 9.96788 8.38249C10.0412 8.56887 10.1955 8.70709 10.305 8.87184C10.5682 9.23344 10.6618 9.69137 10.6611 10.1319C10.659 11.0128 10.6632 11.8945 10.659 12.7762C10.6436 12.959 10.6611 13.2055 10.481 13.3151C10.2464 13.41 10.0216 13.2327 9.85968 13.0819C9.3438 12.5793 8.96266 11.9594 8.60664 11.3388C8.11171 10.4599 7.70334 9.53361 7.37105 8.58214C7.28519 8.34549 7.19584 8.08441 6.97734 7.93782C6.78188 7.81286 6.54035 7.84358 6.32046 7.83729C5.74245 7.84637 5.16375 7.82473 4.58645 7.84776Z" fill="#5181B8"/>
</g>
<defs>
<clipPath id="clip0_10177_226">
<rect width="25" height="25" fill="white"/>
</clipPath>
</defs>
</svg>
